<svg width="40" height="40" viewBox="0 0 40 40" fill="none" xmlns="http://www.w3.org/2000/svg">
<circle cx="20" cy="20" r="20" transform="rotate(-180 20 20)" fill="#40311C"/>
<path d="M16.0527 27C16.053 26.7349 16.1585 26.4807 16.3461 26.2933L21.4607 21.1787C21.6155 21.0239 21.7384 20.8401 21.8221 20.6379C21.9059 20.4357 21.949 20.2189 21.949 20C21.949 19.7811 21.9059 19.5643 21.8221 19.3621C21.7384 19.1599 21.6155 18.9761 21.4607 18.8213L16.3527 13.71C16.1706 13.5214 16.0698 13.2688 16.0721 13.0066C16.0743 12.7444 16.1795 12.4936 16.3649 12.3082C16.5503 12.1228 16.8011 12.0176 17.0633 12.0153C17.3255 12.013 17.5781 12.1138 17.7667 12.296L22.8747 17.4033C23.5616 18.0915 23.9473 19.0241 23.9473 19.9963C23.9473 20.9686 23.5616 21.9012 22.8747 22.5893L17.7601 27.704C17.6204 27.8437 17.4425 27.939 17.2488 27.9777C17.055 28.0165 16.8542 27.9969 16.6715 27.9216C16.4889 27.8463 16.3326 27.7186 16.2225 27.5546C16.1124 27.3905 16.0533 27.1976 16.0527 27Z" fill="white"/>
</svg>
