<svg width="40" height="40" viewBox="0 0 40 40" fill="none" xmlns="http://www.w3.org/2000/svg">
<circle cx="20" cy="20" r="20" fill="#40311C"/>
<path d="M23.9473 13C23.9471 13.2651 23.8416 13.5193 23.654 13.7067L18.5393 18.8213C18.3845 18.9761 18.2617 19.1599 18.1779 19.3621C18.0941 19.5643 18.051 19.7811 18.051 20C18.051 20.2189 18.0941 20.4357 18.1779 20.6379C18.2617 20.8401 18.3845 21.0239 18.5393 21.1787L23.6473 26.29C23.8295 26.4786 23.9303 26.7312 23.928 26.9934C23.9257 27.2556 23.8206 27.5064 23.6352 27.6918C23.4497 27.8772 23.1989 27.9824 22.9367 27.9847C22.6745 27.987 22.4219 27.8862 22.2333 27.704L17.1253 22.5967C16.4385 21.9085 16.0528 20.9759 16.0528 20.0037C16.0528 19.0314 16.4385 18.0988 17.1253 17.4107L22.24 12.296C22.3797 12.1563 22.5576 12.061 22.7513 12.0223C22.945 11.9835 23.1459 12.0031 23.3285 12.0784C23.5112 12.1537 23.6674 12.2814 23.7776 12.4454C23.8877 12.6095 23.9468 12.8024 23.9473 13Z" fill="white"/>
</svg>
