<svg width="32" height="32" viewBox="0 0 32 32" fill="none" xmlns="http://www.w3.org/2000/svg">
<g clip-path="url(#clip0_206_942)">
<path d="M27.9998 5.33333H23.8665C23.557 3.82855 22.7383 2.47646 21.5482 1.50496C20.3581 0.533453 18.8694 0.00193937 17.3332 0L14.6665 0C13.1302 0.00193937 11.6416 0.533453 10.4515 1.50496C9.26141 2.47646 8.44263 3.82855 8.13317 5.33333H3.99984C3.64622 5.33333 3.30708 5.47381 3.05703 5.72386C2.80698 5.97391 2.6665 6.31305 2.6665 6.66667C2.6665 7.02029 2.80698 7.35943 3.05703 7.60948C3.30708 7.85952 3.64622 8 3.99984 8H5.33317V25.3333C5.33529 27.1008 6.03835 28.7953 7.28813 30.045C8.53791 31.2948 10.2324 31.9979 11.9998 32H19.9998C21.7673 31.9979 23.4618 31.2948 24.7115 30.045C25.9613 28.7953 26.6644 27.1008 26.6665 25.3333V8H27.9998C28.3535 8 28.6926 7.85952 28.9426 7.60948C29.1927 7.35943 29.3332 7.02029 29.3332 6.66667C29.3332 6.31305 29.1927 5.97391 28.9426 5.72386C28.6926 5.47381 28.3535 5.33333 27.9998 5.33333ZM14.6665 2.66667H17.3332C18.1602 2.66768 18.9667 2.9245 19.642 3.40192C20.3173 3.87935 20.8284 4.55399 21.1052 5.33333H10.8945C11.1713 4.55399 11.6824 3.87935 12.3577 3.40192C13.033 2.9245 13.8395 2.66768 14.6665 2.66667ZM23.9998 25.3333C23.9998 26.3942 23.5784 27.4116 22.8283 28.1618C22.0781 28.9119 21.0607 29.3333 19.9998 29.3333H11.9998C10.939 29.3333 9.92156 28.9119 9.17141 28.1618C8.42127 27.4116 7.99984 26.3942 7.99984 25.3333V8H23.9998V25.3333Z" fill="#3B183C"/>
<path d="M13.3333 24C13.687 24 14.0261 23.8595 14.2761 23.6095C14.5262 23.3594 14.6667 23.0203 14.6667 22.6667V14.6667C14.6667 14.313 14.5262 13.9739 14.2761 13.7239C14.0261 13.4738 13.687 13.3333 13.3333 13.3333C12.9797 13.3333 12.6406 13.4738 12.3905 13.7239C12.1405 13.9739 12 14.313 12 14.6667V22.6667C12 23.0203 12.1405 23.3594 12.3905 23.6095C12.6406 23.8595 12.9797 24 13.3333 24Z" fill="#3B183C"/>
<path d="M18.6668 24C19.0205 24 19.3596 23.8595 19.6096 23.6095C19.8597 23.3594 20.0002 23.0203 20.0002 22.6667V14.6667C20.0002 14.313 19.8597 13.9739 19.6096 13.7239C19.3596 13.4738 19.0205 13.3333 18.6668 13.3333C18.3132 13.3333 17.9741 13.4738 17.724 13.7239C17.474 13.9739 17.3335 14.313 17.3335 14.6667V22.6667C17.3335 23.0203 17.474 23.3594 17.724 23.6095C17.9741 23.8595 18.3132 24 18.6668 24Z" fill="#3B183C"/>
</g>
<defs>
<clipPath id="clip0_206_942">
<rect width="32" height="32" fill="white"/>
</clipPath>
</defs>
</svg>
