<svg width="13" height="13" viewBox="0 0 13 13" fill="none" xmlns="http://www.w3.org/2000/svg">
<path d="M11.9847 11.3004L9.00024 8.31585C9.81355 7.32115 10.2134 6.0519 10.1172 4.77063C10.0209 3.48937 9.43585 2.29412 8.48303 1.43211C7.53022 0.570107 6.28254 0.107298 4.99806 0.139414C3.71358 0.17153 2.49059 0.696114 1.58205 1.60466C0.6735 2.5132 0.148917 3.7362 0.116801 5.02067C0.0846848 6.30515 0.547494 7.55283 1.4095 8.50565C2.2715 9.45846 3.46675 10.0435 4.74802 10.1398C6.02928 10.236 7.29854 9.83617 8.29324 9.02285L11.2777 12.0074C11.372 12.0984 11.4983 12.1488 11.6294 12.1477C11.7605 12.1466 11.8859 12.094 11.9786 12.0013C12.0714 11.9086 12.1239 11.7832 12.1251 11.6521C12.1262 11.521 12.0758 11.3947 11.9847 11.3004ZM5.13124 9.15385C4.34011 9.15385 3.56675 8.91926 2.90896 8.47973C2.25116 8.04021 1.73847 7.41549 1.43572 6.68459C1.13297 5.95368 1.05376 5.14942 1.2081 4.37349C1.36244 3.59757 1.7434 2.88484 2.30281 2.32543C2.86222 1.76602 3.57495 1.38505 4.35088 1.23071C5.1268 1.07637 5.93107 1.15558 6.66197 1.45833C7.39288 1.76108 8.01759 2.27377 8.45712 2.93157C8.89664 3.58937 9.13124 4.36273 9.13124 5.15385C9.13005 6.21435 8.70824 7.23108 7.95835 7.98096C7.20846 8.73085 6.19174 9.15266 5.13124 9.15385Z" fill="#5C2F5E"/>
</svg>
