<svg width="13" height="13" viewBox="0 0 13 13" fill="none" xmlns="http://www.w3.org/2000/svg">
<g clip-path="url(#clip0_144_403)">
<path d="M11.9849 11.3004L9.00036 8.31585C9.81367 7.32115 10.2136 6.0519 10.1173 4.77063C10.021 3.48937 9.43597 2.29412 8.48315 1.43211C7.53034 0.570107 6.28266 0.107298 4.99818 0.139414C3.71371 0.17153 2.49071 0.696114 1.58217 1.60466C0.673622 2.5132 0.149039 3.7362 0.116923 5.02067C0.0848068 6.30515 0.547616 7.55283 1.40962 8.50565C2.27163 9.45846 3.46688 10.0435 4.74814 10.1398C6.02941 10.236 7.29866 9.83617 8.29336 9.02285L11.2779 12.0074C11.3722 12.0984 11.4985 12.1488 11.6296 12.1477C11.7607 12.1466 11.8861 12.094 11.9788 12.0013C12.0715 11.9086 12.1241 11.7832 12.1252 11.6521C12.1263 11.521 12.0759 11.3947 11.9849 11.3004ZM5.13136 9.15385C4.34024 9.15385 3.56688 8.91926 2.90908 8.47973C2.25128 8.04021 1.73859 7.41549 1.43584 6.68459C1.13309 5.95368 1.05388 5.14942 1.20822 4.37349C1.36256 3.59757 1.74352 2.88484 2.30293 2.32543C2.86234 1.76602 3.57508 1.38505 4.351 1.23071C5.12692 1.07637 5.93119 1.15558 6.6621 1.45833C7.393 1.76108 8.01771 2.27377 8.45724 2.93157C8.89677 3.58937 9.13136 4.36273 9.13136 5.15385C9.13017 6.21435 8.70836 7.23108 7.95847 7.98096C7.20859 8.73085 6.19186 9.15266 5.13136 9.15385Z" fill="#40311C"/>
</g>
<defs>
<clipPath id="clip0_144_403">
<rect width="12" height="12" fill="white" transform="translate(0.130981 0.153839)"/>
</clipPath>
</defs>
</svg>
