<?xml version="1.0" standalone="no"?>
<!DOCTYPE svg PUBLIC "-//W3C//DTD SVG 20010904//EN"
 "http://www.w3.org/TR/2001/REC-SVG-20010904/DTD/svg10.dtd">
<svg version="1.0" xmlns="http://www.w3.org/2000/svg"
 width="60.000000pt" height="59.000000pt" viewBox="0 0 60.000000 59.000000"
 preserveAspectRatio="xMidYMid meet">

<g transform="translate(0.000000,59.000000) scale(0.100000,-0.100000)"
fill="#000000" stroke="none">
<path d="M155 566 c-46 -20 -94 -64 -115 -107 -28 -54 -29 -274 -1 -335 22
-48 82 -101 131 -114 48 -14 234 -13 281 1 52 16 108 64 130 113 27 59 27 273
0 332 -22 48 -82 101 -131 114 -52 15 -259 12 -295 -4z m338 -137 c-8 -63 -57
-286 -63 -293 -5 -5 -29 7 -57 27 l-48 35 -32 -25 -33 -26 -15 39 c-9 22 -19
47 -23 58 -5 10 -27 26 -51 35 -24 9 -42 21 -41 26 1 11 339 144 355 140 6 -1
9 -8 8 -16z"/>
<path d="M327 332 c-83 -55 -87 -58 -81 -87 8 -41 24 -56 24 -22 0 14 6 30 14
34 21 12 148 133 139 133 -4 -1 -47 -27 -96 -58z"/>
</g>
</svg>
